<svg width="64" height="56" viewBox="0 0 64 56" fill="none" xmlns="http://www.w3.org/2000/svg">
<path d="M62.0711 25.805C60.0741 23.791 63.0921 23.913 60.5511 23.618C58.0041 23.314 55.2881 24.22 52.8171 24.078C51.8291 24.015 50.9701 23.882 49.9711 24.021C48.8881 24.185 48.1351 24.032 47.0551 24.035C46.4601 24.035 45.8771 24.082 45.2961 24.151C45.9151 23.684 46.5361 23.196 47.2521 22.784C48.0511 22.784 48.3801 21.991 48.8521 21.682C49.9861 21.516 50.7931 20.578 51.4451 19.936L51.9241 20.095C52.2561 19.936 52.4141 19.936 52.5671 19.783C52.8911 19.783 52.8911 19.466 53.2161 19.466H53.3801C53.3801 18.84 54.1851 18.986 54.3471 18.519C55.1571 18.363 55.3121 17.415 56.1151 17.415C56.1151 17.415 57.5731 16.936 57.7351 16.302C59.3421 15.826 58.5681 16.59 59.5441 16.111C59.7021 15.952 59.8651 15.639 59.8651 15.48C59.5441 15.159 58.4071 13.734 58.4071 13.265V13.106C58.0881 12.473 57.6051 11.845 56.9581 11.682C57.1131 11.365 56.8011 11.053 56.8011 10.737V10.575C56.3101 9.63001 55.8371 8.52 54.7001 8.052C54.2151 8.368 53.5751 8.05201 53.0841 8.36801C53.0841 9.78701 51.1161 9.66501 50.3131 10.141C50.3131 10.611 49.3431 10.611 49.3431 11.256C48.5361 11.092 48.5361 12.361 47.8901 12.361C47.7251 12.361 47.5661 12.196 47.4091 12.196C46.2871 12.672 44.9881 12.989 44.1811 13.936C43.6871 14.1 43.5381 14.882 43.0491 15.195C42.7731 15.753 42.1151 15.45 41.6271 15.485C41.5801 15.485 41.5431 15.5 41.5001 15.506C41.4671 15.506 41.4621 15.517 41.4331 15.527C41.3291 15.403 41.1841 15.309 41.1421 15.183C40.7311 14.545 40.9301 13.655 40.7941 12.988C41.1191 12.51 41.1191 12.04 41.1191 11.56C41.1191 10.93 41.1191 10.456 40.9531 9.819C41.1191 9.193 41.1191 8.40601 41.1191 7.77501C41.1191 4.92901 40.7941 8.375 39.4971 6.002L39.6691 5.84601C39.6691 5.37101 39.1781 5.051 39.1781 4.741V4.584C38.5351 4.584 37.4071 1.899 37.0871 1.263C36.4371 1.263 36.2821 0.631012 35.7861 0.631012C35.7861 0.314012 34.9881 0.314 34.8261 0L34.6621 0.314011C33.6891 0.314011 32.5651 2.688 32.5651 3.474C32.5651 4.103 33.1981 4.742 33.0461 5.373V5.535C34.0121 6.166 34.3381 7.274 34.3381 8.213C34.3381 8.691 34.1761 8.27 34.2241 8.619C34.2731 8.936 34.1981 8.742 34.0121 8.875V9.356C34.0121 9.668 33.8561 10.144 34.1761 10.292C34.1761 10.778 34.0121 11.094 34.0121 11.563C34.0121 11.719 34.1761 12.043 34.1761 12.199C34.0121 12.364 34.0121 12.675 34.0121 12.835C34.0121 13.462 34.0121 13.939 33.5311 14.419C33.5311 14.419 33.3741 14.726 33.3741 14.886C33.3741 15.199 33.6881 15.517 33.6881 15.829C33.6881 16.305 33.0451 16.62 33.1971 17.417L32.8831 17.887C32.8831 18.203 33.0461 18.521 33.0461 18.843L32.8831 19.149C33.0461 20.426 32.0771 21.212 31.9121 22.31C31.9121 22.313 31.9021 22.325 31.9021 22.329C31.8421 22.313 31.7891 22.31 31.7411 22.295C30.9861 22.292 30.7031 22.967 30.2541 23.272C30.1291 23.378 29.9351 23.496 29.7091 23.622C29.5731 23.5 29.4361 23.368 29.3241 23.232C29.1111 23.07 28.9441 22.822 28.8501 22.628C27.2401 21.996 25.9491 20.894 24.3381 20.427C23.8551 19.631 22.8871 19.15 22.2371 18.523C21.2661 18.685 20.6221 17.573 19.6491 17.419C19.0061 17.104 18.6871 16.151 17.8811 16.306C17.0691 15.365 15.1271 13.941 13.8471 13.941C13.2021 12.676 14.0861 14.271 12.7941 13.324C12.6381 13.166 12.4731 12.845 12.1531 12.845C11.5061 12.368 10.6951 12.368 10.2211 11.734C10.0521 11.112 9.40909 11.112 8.91609 11.112H8.11209C7.96609 11.423 7.46409 11.734 7.46409 12.054V12.367H7.30309C7.46409 13 6.99209 13.164 6.99209 13.794L7.30309 14.269C7.30309 14.741 7.96509 14.9 8.28109 15.37C9.08709 15.37 9.40909 16.947 10.3691 17.264C10.5401 17.9 11.3451 18.219 11.5061 19.012C12.4731 19.481 14.1661 20.26 14.8181 20.893C15.9431 20.581 16.2581 22.471 17.3921 22.31H17.7141L18.2001 22.627C18.3691 22.627 18.6881 22.471 18.8531 22.627C19.5391 23.717 20.8321 23.87 21.9001 24.396C21.4401 24.432 20.9681 24.572 20.5461 24.572C19.5091 24.572 18.4611 24.365 17.4231 24.277C15.9491 24.155 14.7921 23.841 13.3371 24.082C12.0831 24.287 10.7601 24.432 9.53009 24.592C7.70509 24.822 5.90209 25.049 4.09909 25.322C2.93809 25.499 1.65709 24.509 0.675088 25.365C-0.171912 26.115 -0.208912 27.348 0.491088 28.219C1.25909 29.178 2.32809 29.328 3.41009 29.758C4.51909 30.193 5.63709 30.5 6.81009 30.571C9.16409 30.73 11.1201 31.233 13.4901 30.857C14.7571 30.657 16.0991 30.654 17.4301 30.654C17.2861 30.774 17.1091 30.897 16.9111 31.006C16.4501 31.006 16.1691 31.3 15.9041 31.598L14.7261 32.479C13.6721 33.02 12.1651 33.467 12.1651 33.467C11.6791 33.467 11.1931 33.937 10.7071 33.937H10.5501C10.2241 34.41 9.42309 34.088 9.08809 34.57C8.13109 34.41 7.32609 35.043 6.51009 35.353C5.70909 35.516 5.55309 36.618 5.55309 37.25C5.55309 37.89 5.87009 38.521 6.03009 38.987C6.34709 39.777 6.83409 39.623 6.83409 39.941V40.097L7.16509 40.253L7.47809 40.097C8.13109 40.723 9.74409 43.101 10.3841 43.255C10.8641 43.573 11.5141 43.73 12.1641 43.73C12.6551 43.73 15.4391 42.378 17.5311 41.316L18.0481 41.013C18.0481 41.013 18.2451 40.823 18.3741 40.803C18.5071 40.785 18.6721 40.721 18.6721 40.721L18.9341 40.576L19.1911 40.434L19.5121 40.309C19.5121 40.309 19.8281 40.183 19.9811 40.169C20.6221 40.143 20.9421 39.696 21.4321 39.225C22.3971 38.754 23.5241 38.122 24.1681 37.172C24.9831 37.172 25.4581 36.374 26.1101 36.22C26.4321 34.962 28.0401 35.274 28.5321 34.324C28.6791 34.3 28.7851 34.316 28.8631 34.347L28.8711 34.354V34.347C28.8871 34.357 28.9141 34.368 28.9261 34.38C28.9441 34.39 28.9581 34.406 28.9721 34.427C29.2431 34.722 28.9261 35.546 29.1721 35.903C28.8481 36.066 29.1721 36.536 29.0061 36.855C28.3631 37.484 27.8861 38.274 27.8861 39.224V39.696C27.2381 40.329 26.9091 41.279 26.5871 42.233C26.7491 43.009 25.4581 43.177 25.4581 44.113L25.3001 44.288C25.4581 44.438 25.4581 44.756 25.4581 44.902C25.6241 45.223 25.6241 45.55 25.6241 45.863C25.6241 46.645 25.3001 47.285 25.3001 48.076C25.3001 48.392 25.3001 48.551 25.4581 48.865C26.2701 49.176 25.4581 50.286 26.2701 50.444C26.9101 50.92 27.2381 51.86 28.0401 51.714C28.2021 53.135 30.1411 52.973 30.3051 54.402C31.1151 54.076 31.2731 55.348 32.0761 55.348C32.4131 55.348 32.2391 54.717 32.4131 54.402L32.0761 53.922C32.2391 53.292 32.5631 52.974 32.5631 52.496C32.5631 52.343 32.4141 52.025 32.4141 51.861C32.7261 51.551 33.5301 49.334 33.5301 48.866V47.444C33.8551 46.497 34.6601 45.864 34.8241 44.756C35.1461 44.603 35.3011 44.113 35.3011 43.652C35.3011 43.009 35.1461 42.233 35.7841 41.76C35.6201 40.801 36.1101 40.168 36.1101 39.224C36.1101 38.896 36.1101 38.588 35.9531 38.274C36.6041 37.796 36.1101 36.374 37.0851 35.903L37.2381 35.426C37.2381 35.395 37.2441 35.28 37.2511 35.116C37.2641 34.909 37.2931 34.62 37.3171 34.311C37.8461 34.546 38.2951 34.769 38.5021 34.96H38.5331C39.0141 35.741 40.1391 35.901 40.9501 36.534C42.0771 37.326 42.7271 37.005 43.6831 37.642L44.0211 37.482C44.4931 37.482 45.1421 38.272 45.4691 38.272L45.3101 38.424C46.5941 39.061 47.7211 39.694 49.0241 40.326C49.1741 40.326 49.3401 40.326 49.5041 40.485C51.1121 41.757 53.8581 43.328 55.7921 43.808C55.9611 44.285 56.5971 44.435 56.7661 44.752C57.4101 44.752 57.5691 45.546 58.2061 45.546L58.5311 45.388C58.7001 45.546 59.1811 45.546 59.3381 45.86C59.5091 45.7 59.6671 45.388 59.5091 45.074V44.599C58.2061 43.808 57.7311 40.636 57.0771 39.851C57.2441 38.893 56.2741 38.271 55.9601 37.481C55.3071 37.481 55.1521 36.852 54.6621 36.852H54.3421C53.8571 36.533 53.0451 36.692 53.0451 35.9V35.74C52.0831 34.959 51.4411 34.01 50.6261 33.378C50.3091 33.216 50.1491 33.216 49.9811 33.216C49.6641 33.216 49.1721 33.378 49.0221 33.532C47.8851 33.687 47.4041 32.587 46.2821 32.587C45.1411 31.791 43.8521 31.324 42.5671 30.68C42.3361 30.544 42.1511 30.296 41.9481 30.073C42.5221 29.988 42.8321 30.104 43.4161 30.12C44.1131 30.143 44.7221 30.01 45.4671 29.95C46.3721 29.87 46.8681 30.403 47.7451 30.555C49.2521 30.823 50.6911 29.654 52.0921 29.521C54.4591 29.32 56.8681 29.648 59.1731 29.349C59.5691 29.291 59.0741 29.552 60.3411 29.478C61.1741 29.431 62.9501 29.824 63.3491 28.762C63.6051 28.102 62.5261 26.267 62.0711 25.805Z" fill="#E21F26"/>
</svg>
